<?xml version="1.0" encoding="iso-8859-1"?>

<!DOCTYPE svg PUBLIC "-//W3C//DTD SVG 1.1//EN" "http://www.w3.org/Graphics/SVG/1.1/DTD/svg11.dtd">
<!-- Uploaded to: SVG Repo, www.svgrepo.com, Generator: SVG Repo Mixer Tools -->
<svg height="800px" width="800px" version="1.1" id="_x35_" xmlns="http://www.w3.org/2000/svg" xmlns:xlink="http://www.w3.org/1999/xlink" 
	 viewBox="0 0 512 512"  xml:space="preserve">
<g>
	<g>
		<g>
			<g>
				<polygon style="fill:#D6D7D7;" points="249.952,223.688 247.993,228.145 247.318,229.834 247.251,229.9 237.863,250.905 
					236.174,254.62 209.16,315.267 209.025,315.604 205.918,322.629 123.456,507.611 121.498,512 114.541,508.151 116.365,500.519 
					160.669,316.483 168.031,285.956 175.594,254.552 175.932,253.133 176.134,252.864 205.918,222.674 206.053,222.472 
					223.748,204.372 227.192,200.86 229.758,198.294 				"/>
				<g>
					<path style="fill:#C66D7D;" d="M409.338,62.006c-0.81-3.04-1.824-6.012-2.972-8.78c-6.416-15.804-17.627-27.69-27.623-36.335
						c-6.01-5.2-13.237-9.32-20.868-12.156c-5.808-2.297-11.819-3.715-17.762-4.391c-16.952-1.756-32.823,3.107-39.576,16.884
						l-5.403,13.642l-5.876,14.656l-11.076,27.69l-33.431,83.61l-17.56,44.034l1.081,1.419l19.721,25.866l0.405,0.54l0.878,1.081
						c0,0,17.019-19.653,37.685-33.161c33.565-21.949,91.714-17.087,116.838-78.274c2.364-5.673,4.12-11.076,5.335-16.277
						C412.917,86.724,412.444,73.487,409.338,62.006z M357.402,103.946c-12.089,22.423-44.98,34.983-59.027,25.191
						c-14.115-9.792-2.297-37.551,6.686-59.094c7.496-18.099,17.762-24.92,26.744-25.461c4.322-0.338,8.307,0.744,11.616,2.702
						c8.037,4.862,14.993,13.238,18.032,23.638C364.358,80.646,363.818,92.127,357.402,103.946z"/>
					<polygon style="fill:#C66D7D;" points="297.227,51.334 286.557,75.985 278.182,73.216 269.402,70.177 281.289,42.825 
						289.258,45.527 					"/>
				</g>
			</g>
			<g>
				<polygon style="fill:#FBFBFC;" points="297.227,508.151 290.339,512 205.918,322.629 202.744,315.604 202.609,315.267 
					190.047,287.037 175.594,254.552 173.973,250.905 164.586,229.9 163.776,228.078 161.817,223.688 182.01,198.294 
					184.577,200.86 188.021,204.372 205.715,222.472 205.918,222.674 229.961,247.122 235.634,252.864 235.837,253.133 
					236.174,254.62 243.738,285.956 				"/>
				<g>
					<path style="fill:#C66D7D;" d="M148.647,110.902l-15.061-37.686l-11.076-27.69l-5.808-14.656l-1.418-3.512l-4.052-10.131
						C104.479,3.451,88.608-1.412,71.724,0.344c-13.778,1.486-28.095,7.43-38.699,16.547C21.274,27.089,7.834,41.677,2.431,62.006
						c-2.904,11.075-3.512,23.84-0.135,38.495c0.068,0.473,0.203,1.013,0.338,1.553c1.216,5.2,2.972,10.604,5.336,16.277
						c15.938,38.766,45.114,51.057,72.872,60.378c16.074,5.402,31.742,9.86,44.034,17.896
						c20.599,13.507,37.618,33.161,37.618,33.161l1.283-1.688l19.721-25.799l1.08-1.419L148.647,110.902z M113.393,129.137
						c-13.98,9.792-46.87-2.768-59.027-25.191c-6.348-11.819-6.956-23.3-4.052-33.025c3.039-10.4,9.996-18.775,18.033-23.638
						c3.309-1.958,7.294-3.04,11.616-2.702c8.982,0.541,19.248,7.362,26.744,25.461C115.69,91.586,127.509,119.344,113.393,129.137z
						"/>
					<polygon style="fill:#C66D7D;" points="142.379,70.162 133.57,73.221 125.228,75.954 114.529,51.345 122.542,45.559 
						130.491,42.819 					"/>
				</g>
			</g>
		</g>
		<circle style="fill:#C97272;" cx="205.891" cy="257.318" r="15.44"/>
	</g>
	<path style="opacity:0.1;fill:#040000;" d="M409.338,62.006c-0.81-3.04-1.824-6.012-2.972-8.78
		c-6.416-15.804-17.627-27.69-27.622-36.335c-6.01-5.2-13.237-9.32-20.868-12.156c-5.808-2.297-11.819-3.715-17.762-4.391
		c-16.952-1.756-32.823,3.107-39.576,16.884l-5.403,13.642l-5.876,14.656l-7.969-2.702l-11.887,27.352l8.78,3.039l-33.431,83.61
		l-17.56,44.034l-3.444,3.512l-17.695,18.1l-0.135,0.202l-0.008-0.007v99.979l0.008-0.017L290.339,512l6.888-3.849l-53.489-222.195
		l-7.564-31.336l1.689-3.715l9.388-21.005l0.068-0.067l0.675-1.688l0.405,0.54l0.878,1.081c0,0,17.019-19.653,37.685-33.161
		c33.565-21.949,91.714-17.087,116.838-78.274c2.364-5.673,4.12-11.076,5.335-16.277C412.917,86.724,412.444,73.487,409.338,62.006z
		 M357.402,103.946c-12.089,22.423-44.98,34.983-59.027,25.191c-14.115-9.792-2.296-37.551,6.686-59.094
		c7.496-18.099,17.762-24.92,26.744-25.461c4.322-0.338,8.307,0.744,11.616,2.702c8.037,4.862,14.993,13.238,18.032,23.638
		C364.358,80.646,363.818,92.127,357.402,103.946z"/>
</g>
</svg>