<?xml version="1.0" encoding="iso-8859-1"?>
<!-- Uploaded to: SVG Repo, www.svgrepo.com, Generator: SVG Repo Mixer Tools -->
<svg height="800px" width="800px" version="1.1" id="Layer_1" xmlns="http://www.w3.org/2000/svg" xmlns:xlink="http://www.w3.org/1999/xlink" 
	 viewBox="0 0 491.52 491.52" xml:space="preserve">
<path style="fill:#64798A;" d="M245.76,0C110.029,0,0,110.03,0,245.76c0,135.729,110.029,245.76,245.76,245.76
	c135.728,0,245.76-110.031,245.76-245.76C491.52,110.03,381.488,0,245.76,0z"/>
<path style="fill:#3A556A;" d="M245.76,43.34c-111.794,0-202.42,90.626-202.42,202.42c0,111.793,90.626,202.419,202.42,202.419
	c111.792,0,202.418-90.626,202.418-202.419C448.178,133.966,357.552,43.34,245.76,43.34z M245.76,441.631
	c-108.177,0-195.871-87.694-195.871-195.871S137.583,49.889,245.76,49.889c108.176,0,195.868,87.694,195.868,195.871
	S353.936,441.631,245.76,441.631z"/>
<circle style="fill:#EBF0F3;" cx="245.76" cy="245.76" r="195.891"/>
<g>
	<circle style="fill:#E56353;" cx="420.096" cy="245.76" r="9.119"/>
	<circle style="fill:#E56353;" cx="245.76" cy="71.444" r="9.119"/>
	<circle style="fill:#E56353;" cx="245.76" cy="420.096" r="9.119"/>
	<circle style="fill:#E56353;" cx="71.444" cy="245.76" r="9.119"/>
</g>
<polygon style="fill:#64798A;" points="347.117,241.147 269.367,239.075 252.835,238.634 252.835,252.887 269.367,252.444 
	347.117,250.372 351.013,245.76 "/>
<path style="fill:#2F4859;" d="M269.367,239.075l-16.532-0.442v14.253l16.532-0.442c0.609-2.14,1.039-4.352,1.039-6.685
	S269.976,241.216,269.367,239.075z"/>
<g>
	<polygon style="fill:#64798A;" points="253.645,233.839 237.873,233.839 241.147,111.008 245.759,107.109 250.371,111.008 	"/>
	<circle style="fill:#64798A;" cx="245.76" cy="245.76" r="15.708"/>
</g>
<polygon style="fill:#E56353;" points="238.641,256.127 373.385,121.383 370.225,118.223 235.481,252.968 233.902,251.387 
	199.176,286.113 205.495,292.432 240.221,257.706 "/>
<circle style="fill:#3A556A;" cx="245.76" cy="245.76" r="9.119"/>
</svg>